<svg xmlns="http://www.w3.org/2000/svg" style="display: none;"><symbol id="money" viewBox="0 0 60 60"><title>money</title><path d="M59.989,21c-0.099-1.711-2.134-3.048-6.204-4.068c0.137-0.3,0.214-0.612,0.215-0.936V9h-0.017C53.625,3.172,29.743,3,27,3 S0.375,3.172,0.017,9H0v0.13v0v0l0,6.869c0.005,1.9,2.457,3.387,6.105,4.494c-0.05,0.166-0.08,0.335-0.09,0.507H6v0.13v0v0l0,6.857 C2.07,28.999,0.107,30.317,0.01,32H0v0.13v0v0l0,6.869c0.003,1.323,1.196,2.445,3.148,3.38c-0.074,0.203-0.12,0.41-0.133,0.622H3 v0.13v0v0l0,6.869c0.008,3.326,7.497,5.391,15.818,6.355c0.061,0.012,0.117,0.037,0.182,0.037c0.019,0,0.035-0.01,0.054-0.011 c1.604,0.181,3.234,0.322,4.847,0.423c0.034,0.004,0.064,0.02,0.099,0.02c0.019,0,0.034-0.01,0.052-0.011 C26.1,56.937,28.115,57,30,57c1.885,0,3.9-0.063,5.948-0.188c0.018,0.001,0.034,0.011,0.052,0.011c0.035,0,0.065-0.017,0.099-0.02 c1.613-0.101,3.243-0.241,4.847-0.423C40.965,56.38,40.981,56.39,41,56.39c0.065,0,0.121-0.025,0.182-0.037 c8.321-0.964,15.809-3.03,15.818-6.357V43h-0.016c-0.07-1.226-1.115-2.249-3.179-3.104c0.126-0.289,0.195-0.589,0.195-0.9V32.46 c3.59-1.104,5.995-2.581,6-4.464V21H59.989z M51.892,39.321l-0.341,0.299C51.026,40.083,50.151,40.55,49,41v-4.768 c1.189-0.414,2.201-0.873,3-1.376v4.138C52,39.097,51.962,39.207,51.892,39.321z M29.526,43.968 c-0.146,0.004-0.293,0.006-0.44,0.009c-0.357,0.007-0.723,0.009-1.085,0.012v-4.995c0.275-0.003,0.55-0.007,0.825-0.012 c0.053-0.001,0.106-0.002,0.159-0.003c1.007-0.019,2.014-0.05,3.016-0.096v4.993c-0.214,0.011-0.429,0.021-0.646,0.03 C30.753,43.933,30.145,43.953,29.526,43.968z M25.159,43.982c-0.458-0.008-0.914-0.019-1.367-0.033 c-0.056-0.002-0.112-0.004-0.168-0.006c-0.545-0.018-1.086-0.041-1.623-0.067v-4.992c1.002,0.047,2.009,0.078,3.016,0.096 c0.053,0.001,0.106,0.002,0.158,0.003c0.275,0.005,0.55,0.009,0.825,0.012v4.998c-0.194-0.002-0.388-0.002-0.581-0.005 C25.331,43.986,25.246,43.983,25.159,43.982z M7.097,41.702C7.064,41.692,7.033,41.683,7,41.674v-4.831 c0.934,0.252,1.938,0.482,3,0.691v4.881c-0.918-0.195-1.765-0.4-2.536-0.61C7.342,41.77,7.216,41.737,7.097,41.702z M28.175,49.983 c0.275,0.005,0.55,0.009,0.825,0.012v4.999c-1.382-0.013-2.716-0.053-4-0.116v-4.993c1.002,0.047,2.009,0.078,3.016,0.096 C28.069,49.981,28.122,49.982,28.175,49.983z M31.984,49.98c1.007-0.019,2.014-0.05,3.016-0.096v4.993 c-1.284,0.063-2.618,0.103-4,0.116v-4.999c0.275-0.003,0.55-0.007,0.825-0.012C31.878,49.982,31.931,49.981,31.984,49.98z M40,49.528v4.966c-0.961,0.101-1.961,0.19-3,0.263v-4.987C38.014,49.704,39.016,49.623,40,49.528z M42,49.312 c1.031-0.124,2.032-0.265,3-0.422v4.91c-0.942,0.166-1.943,0.319-3,0.458V49.312z M47,48.533c1.062-0.209,2.066-0.439,3-0.691v4.831 c-0.891,0.257-1.894,0.506-3,0.741V48.533z M13,48.533v4.881c-1.106-0.235-2.109-0.484-3-0.741v-4.831 C10.934,48.094,11.938,48.325,13,48.533z M15,48.891c0.968,0.157,1.969,0.298,3,0.422v4.946c-1.057-0.139-2.058-0.292-3-0.458 V48.891z M20,49.528c0.984,0.095,1.986,0.176,3,0.243v4.987c-1.039-0.073-2.039-0.162-3-0.263V49.528z M17.519,43.548 c-0.102-0.01-0.203-0.021-0.304-0.031c-0.072-0.007-0.143-0.016-0.215-0.023v-4.965c0.984,0.095,1.986,0.176,3,0.243v4.983 C19.16,43.695,18.33,43.627,17.519,43.548z M15,38.312v4.946c-1.057-0.139-2.058-0.292-3-0.458v-4.91 C12.968,38.047,13.969,38.189,15,38.312z M34.666,43.708c-0.22,0.017-0.442,0.034-0.666,0.05v-4.987 c1.014-0.067,2.016-0.147,3-0.243v4.966c-0.618,0.065-1.25,0.126-1.899,0.179C34.956,43.686,34.811,43.697,34.666,43.708z M39,43.258v-4.946c1.031-0.124,2.032-0.265,3-0.422v4.91C41.058,42.966,40.057,43.12,39,43.258z M44,37.533 c1.062-0.209,2.066-0.439,3-0.691v4.831c-0.891,0.257-1.894,0.506-3,0.741V37.533z M30.325,32.965 c-0.752-0.019-1.487-0.048-2.209-0.083c-0.039-0.002-0.078-0.004-0.116-0.005v-4.993c1.002,0.047,2.009,0.078,3.016,0.096 c0.053,0.001,0.106,0.002,0.158,0.003c0.275,0.005,0.55,0.009,0.825,0.012v4.993c-0.487-0.005-0.978-0.007-1.453-0.018 C30.473,32.968,30.398,32.967,30.325,32.965z M7,18.674v-4.831c0.934,0.252,1.938,0.482,3,0.691v4.881 c-0.123-0.026-0.25-0.052-0.37-0.078c-0.532-0.117-1.051-0.239-1.547-0.368C7.705,18.872,7.346,18.773,7,18.674z M25.175,15.983 c0.275,0.005,0.55,0.009,0.825,0.012v4.993c-1.346-0.013-2.684-0.048-4-0.114v-4.989c1.002,0.047,2.009,0.078,3.016,0.096 C25.069,15.981,25.122,15.982,25.175,15.983z M28.984,15.98c1.007-0.019,2.014-0.05,3.016-0.096v4.989 c-0.17,0.008-0.333,0.02-0.504,0.028c-0.014,0.001-0.028,0.001-0.043,0.002c-0.671,0.03-1.355,0.052-2.048,0.068 c-0.108,0.003-0.216,0.004-0.324,0.007c-0.356,0.007-0.72,0.008-1.081,0.012v-4.995c0.275-0.003,0.55-0.007,0.825-0.012 C28.878,15.982,28.931,15.981,28.984,15.98z M51.771,16.482l-0.028-0.006l-0.364,0.283C50.851,17.17,50.04,17.586,49,17.988v-4.757 c1.189-0.414,2.201-0.873,3-1.376v4.138C52,16.145,51.92,16.309,51.771,16.482z M39,20.252v-4.94c1.031-0.124,2.032-0.265,3-0.422 v4.902C41.052,19.96,40.054,20.114,39,20.252z M44,19.407v-4.873c1.062-0.209,2.066-0.439,3-0.691v4.82 C46.104,18.924,45.095,19.173,44,19.407z M37,15.528v4.96c-0.966,0.102-1.966,0.191-3,0.265v-4.982 C35.014,15.704,36.016,15.623,37,15.528z M17,20.49v-4.962c0.984,0.095,1.986,0.176,3,0.243v4.978 C18.982,20.676,17.978,20.593,17,20.49z M15,15.312v4.941c-0.198-0.026-0.404-0.047-0.6-0.074c-0.128-0.018-0.25-0.037-0.376-0.055 c-0.578-0.083-1.143-0.172-1.697-0.265C12.216,19.84,12.109,19.82,12,19.801v-4.91C12.968,15.047,13.969,15.189,15,15.312z M25.752,32.739c-0.135-0.01-0.271-0.02-0.405-0.03c-0.64-0.05-1.265-0.105-1.875-0.166c-0.131-0.013-0.262-0.027-0.392-0.04 C23.053,32.5,23.027,32.496,23,32.494v-4.966c0.984,0.095,1.986,0.176,3,0.243v4.984C25.919,32.749,25.833,32.745,25.752,32.739z M19.145,31.992c-0.396-0.063-0.768-0.131-1.145-0.197v-4.904c0.968,0.157,1.969,0.298,3,0.422v4.946 c-0.612-0.081-1.211-0.165-1.786-0.255C19.191,31.999,19.168,31.995,19.145,31.992z M16,26.533v4.873 c-1.105-0.237-2.107-0.489-3-0.751v-4.813C13.934,26.094,14.938,26.325,16,26.533z M11,25.231v4.751 c-1.572-0.607-2.586-1.227-2.916-1.779l-0.067-0.112C8.011,28.06,8.001,28.027,8,27.996l0-4.141 C8.799,24.358,9.811,24.817,11,25.231z M34.984,27.98c1.007-0.019,2.014-0.05,3.016-0.096v4.988c-1.314,0.065-2.65,0.101-4,0.115 v-4.992c0.275-0.003,0.55-0.007,0.825-0.012C34.878,27.982,34.931,27.981,34.984,27.98z M47.907,31.817 c-0.439,0.076-0.882,0.151-1.337,0.22c-0.261,0.04-0.528,0.078-0.796,0.116c-0.253,0.036-0.516,0.067-0.773,0.1v-4.941 c1.031-0.124,2.032-0.265,3-0.422v4.91C47.969,31.806,47.938,31.812,47.907,31.817z M41.136,32.671 c-0.373,0.031-0.758,0.051-1.136,0.078v-4.978c1.014-0.067,2.016-0.147,3-0.243v4.961c-0.581,0.061-1.161,0.122-1.758,0.172 C41.206,32.664,41.172,32.668,41.136,32.671z M52.564,30.796c-0.498,0.139-1.025,0.269-1.563,0.396 c-0.249,0.058-0.503,0.116-0.763,0.172c-0.077,0.017-0.159,0.032-0.237,0.049v-4.879c1.062-0.209,2.066-0.439,3-0.691v4.831 C52.857,30.714,52.712,30.755,52.564,30.796z M57.989,21.065c-0.092,0.679-1.631,1.582-4.378,2.431l0,0 c-3.538,1.093-9.074,2.094-16.09,2.404c-0.359,0.015-0.717,0.03-1.083,0.042c-0.299,0.01-0.599,0.019-0.904,0.027 C34.706,25.987,33.866,26,33,26s-1.706-0.013-2.534-0.032c-0.304-0.007-0.604-0.017-0.904-0.027 c-0.367-0.011-0.725-0.027-1.083-0.042c-7.016-0.31-12.553-1.311-16.09-2.404l0,0c-2.725-0.842-4.261-1.738-4.375-2.414 c0.005-0.019,0.005-0.035,0.017-0.059c0.068,0.017,0.144,0.031,0.213,0.048c0.391,0.093,0.792,0.183,1.2,0.269 c1.987,0.428,4.189,0.779,6.535,1.047c0.008,0,0.014,0.004,0.021,0.004c0.002,0,0.004-0.001,0.005-0.001 c1.598,0.182,3.256,0.325,4.958,0.426c0.013,0,0.024,0.007,0.037,0.007c0.007,0,0.012-0.004,0.019-0.004 c1.225,0.072,2.466,0.125,3.722,0.153C25.51,22.99,26.265,23,27,23c0.525,0,1.063-0.006,1.606-0.016 c7.266-0.112,14-0.976,18.686-2.315c0.216-0.061,0.427-0.124,0.635-0.187c0.127-0.039,0.257-0.077,0.38-0.116 c0.362-0.116,0.709-0.235,1.044-0.359c0.058-0.022,0.113-0.044,0.171-0.066c0.283-0.107,0.555-0.218,0.815-0.331 c0.075-0.033,0.152-0.065,0.225-0.098c0.277-0.125,0.545-0.253,0.793-0.386c0.112-0.059,0.209-0.12,0.314-0.18 c0.12-0.069,0.24-0.139,0.351-0.21c0.063-0.04,0.138-0.078,0.198-0.118C56.695,19.589,57.875,20.651,57.989,21.065z M27,5 c16.489,0,24.829,2.596,24.985,4.086c-0.121,0.676-1.656,1.569-4.374,2.409l0,0c-3.538,1.093-9.074,2.094-16.09,2.404 c-0.359,0.015-0.717,0.03-1.083,0.042c-0.299,0.01-0.599,0.019-0.904,0.027C28.706,13.987,27.866,14,27,14s-1.706-0.013-2.534-0.032 c-0.304-0.007-0.604-0.017-0.904-0.027c-0.367-0.011-0.725-0.027-1.083-0.042c-7.016-0.31-12.553-1.311-16.09-2.404l0,0 c-2.719-0.84-4.253-1.733-4.374-2.409C2.171,7.596,10.511,5,27,5z M2,15.996l0-4.141c0.799,0.503,1.811,0.962,3,1.376v4.788 C3.055,17.29,2.002,16.559,2,15.996z M6.844,29.835c0.015,0.016,0.038,0.03,0.053,0.046c1.369,1.382,4.204,2.468,7.733,3.278 c0.081,0.019,0.167,0.037,0.249,0.056c0.259,0.058,0.522,0.115,0.788,0.17c3.241,0.69,7.11,1.189,11.325,1.436 c0.003,0,0.005,0.001,0.007,0.001c0.002,0,0.003-0.001,0.004-0.001c1.354,0.079,2.739,0.134,4.153,0.158 C31.782,34.992,32.398,35,33,35c0.69,0,1.398-0.008,2.118-0.025c1.308-0.027,2.597-0.081,3.868-0.155 c0.005,0,0.009,0.003,0.014,0.003c0.009,0,0.016-0.005,0.025-0.005c4.226-0.249,8.191-0.753,11.544-1.478 c-0.726,0.38-1.72,0.773-2.958,1.156l0,0c-3.735,1.154-9.7,2.205-17.281,2.449c-0.225,0.007-0.447,0.015-0.675,0.021 c-0.245,0.006-0.494,0.01-0.743,0.015C28.283,36.991,27.65,37,27,37c-0.866,0-1.706-0.013-2.534-0.032 c-0.304-0.007-0.604-0.017-0.904-0.027c-0.367-0.011-0.725-0.027-1.083-0.042c-7.016-0.31-12.553-1.311-16.09-2.404l0,0 c-2.75-0.85-4.289-1.754-4.378-2.433C2.122,31.686,3.133,30.745,6.844,29.835z M2,38.996l0-4.141c0.799,0.503,1.811,0.962,3,1.376 v4.769l-0.571-0.222L4.417,40.79C2.847,40.139,2.002,39.5,2,38.996z M5,49.996l0-4.141c0.799,0.503,1.811,0.962,3,1.376v4.788 C6.055,51.29,5.002,50.559,5,49.996z M52,52.019v-4.787c1.189-0.414,2.201-0.873,3-1.376v4.138 C54.999,50.557,53.945,51.289,52,52.019z M54.987,43.077c-0.109,0.677-1.645,1.575-4.376,2.419l0,0 c-3.538,1.093-9.074,2.094-16.09,2.404c-0.359,0.015-0.717,0.03-1.083,0.042c-0.299,0.01-0.599,0.019-0.904,0.027 C31.706,47.987,30.866,48,30,48c-0.866,0-1.707-0.013-2.536-0.032c-0.301-0.007-0.598-0.017-0.895-0.027 c-0.369-0.012-0.729-0.027-1.09-0.042c-7.016-0.31-12.552-1.311-16.09-2.404l0,0c-2.645-0.817-4.173-1.685-4.365-2.355 c0.298,0.104,0.607,0.205,0.924,0.304c0.032,0.01,0.064,0.02,0.096,0.029c0.27,0.083,0.546,0.163,0.829,0.241 c0.107,0.03,0.215,0.06,0.324,0.089c0.16,0.043,0.324,0.084,0.488,0.126c3.642,0.933,8.291,1.594,13.31,1.891 c0.002,0,0.003,0.001,0.005,0.001c0.001,0,0.002-0.001,0.003-0.001c1.55,0.092,3.133,0.149,4.733,0.168 C26.162,45.996,26.585,46,27,46c0.551,0,1.115-0.007,1.686-0.017c1.459-0.024,2.899-0.078,4.307-0.162 c0.003,0,0.005,0.002,0.008,0.002c0.005,0,0.008-0.003,0.013-0.003c1.715-0.103,3.375-0.25,4.97-0.433 c0.006,0,0.011,0.003,0.017,0.003c0.022,0,0.04-0.011,0.062-0.013c1.776-0.205,3.46-0.457,5.023-0.75 c0.322-0.059,0.639-0.12,0.953-0.183c0.07-0.014,0.14-0.028,0.21-0.043c2.953-0.606,5.509-1.391,7.263-2.364 c0.096-0.052,0.186-0.106,0.277-0.159c0.111-0.066,0.217-0.133,0.32-0.201c0.096-0.062,0.207-0.122,0.295-0.185 C54.378,42.196,54.922,42.826,54.987,43.077z M55,30.019v-4.787c1.189-0.414,2.201-0.873,3-1.376v4.138 C57.999,28.557,56.945,29.289,55,30.019z"/></symbol><symbol id="home" viewBox="0 0 512 512"><title>home</title><g> <g> <path d="M506.555,208.064L263.859,30.367c-4.68-3.426-11.038-3.426-15.716,0L5.445,208.064 c-5.928,4.341-7.216,12.665-2.875,18.593s12.666,7.214,18.593,2.875L256,57.588l234.837,171.943c2.368,1.735,5.12,2.57,7.848,2.57 c4.096,0,8.138-1.885,10.744-5.445C513.771,220.729,512.483,212.405,506.555,208.064z"/> </g> </g><g> <g> <path d="M442.246,232.543c-7.346,0-13.303,5.956-13.303,13.303v211.749H322.521V342.009c0-36.68-29.842-66.52-66.52-66.52 s-66.52,29.842-66.52,66.52v115.587H83.058V245.847c0-7.347-5.957-13.303-13.303-13.303s-13.303,5.956-13.303,13.303v225.053 c0,7.347,5.957,13.303,13.303,13.303h133.029c6.996,0,12.721-5.405,13.251-12.267c0.032-0.311,0.052-0.651,0.052-1.036v-128.89 c0-22.009,17.905-39.914,39.914-39.914s39.914,17.906,39.914,39.914v128.89c0,0.383,0.02,0.717,0.052,1.024 c0.524,6.867,6.251,12.279,13.251,12.279h133.029c7.347,0,13.303-5.956,13.303-13.303V245.847 C455.549,238.499,449.593,232.543,442.246,232.543z"/> </g> </g></symbol><symbol id="security" viewBox="-41 0 374 374.10622"><title>security</title><path d="m287.664062 75.746094-140.605468-74.921875c-2.085938-1.113281-4.585938-1.097657-6.65625.039062l-136.714844 74.921875c-2.242188 1.230469-3.6328125 3.582032-3.6328125 6.140625v97.867188c.0820315 80.449219 47.7460935 153.230469 121.4570315 185.460937l18.976562 8.269532c1.773438.773437 3.792969.777343 5.570313.007812l21.382812-9.234375c75.078125-31.53125 123.921875-105.015625 123.929688-186.445313v-95.925781c0-2.585937-1.425782-4.964843-3.707032-6.179687zm-10.292968 102.105468c-.015625 75.816407-45.503906 144.226563-115.410156 173.566407l-.046876.023437-18.621093 8.039063-16.179688-7.058594c-68.613281-30-112.984375-97.742187-113.0625-172.628906v-93.722657l129.761719-71.117187 133.558594 71.167969zm0 0"/><path d="m92.167969 175.253906c-2.511719-2.941406-6.929688-3.289062-9.871094-.777344-2.941406 2.507813-3.289063 6.929688-.777344 9.867188l36.976563 43.300781c2.46875 2.890625 6.792968 3.285157 9.738281.886719l86.117187-70.0625c3-2.4375 3.453126-6.847656 1.011719-9.847656-2.4375-2.996094-6.847656-3.453125-9.847656-1.011719l-80.8125 65.742187zm0 0"/></symbol><symbol id="bin" viewBox="-40 0 427 427.00131"><title>bin</title><path d="m232.398438 154.703125c-5.523438 0-10 4.476563-10 10v189c0 5.519531 4.476562 10 10 10 5.523437 0 10-4.480469 10-10v-189c0-5.523437-4.476563-10-10-10zm0 0"/><path d="m114.398438 154.703125c-5.523438 0-10 4.476563-10 10v189c0 5.519531 4.476562 10 10 10 5.523437 0 10-4.480469 10-10v-189c0-5.523437-4.476563-10-10-10zm0 0"/><path d="m28.398438 127.121094v246.378906c0 14.5625 5.339843 28.238281 14.667968 38.050781 9.285156 9.839844 22.207032 15.425781 35.730469 15.449219h189.203125c13.527344-.023438 26.449219-5.609375 35.730469-15.449219 9.328125-9.8125 14.667969-23.488281 14.667969-38.050781v-246.378906c18.542968-4.921875 30.558593-22.835938 28.078124-41.863282-2.484374-19.023437-18.691406-33.253906-37.878906-33.257812h-51.199218v-12.5c.058593-10.511719-4.097657-20.605469-11.539063-28.03125-7.441406-7.421875-17.550781-11.5546875-28.0625-11.46875h-88.796875c-10.511719-.0859375-20.621094 4.046875-28.0625 11.46875-7.441406 7.425781-11.597656 17.519531-11.539062 28.03125v12.5h-51.199219c-19.1875.003906-35.394531 14.234375-37.878907 33.257812-2.480468 19.027344 9.535157 36.941407 28.078126 41.863282zm239.601562 279.878906h-189.203125c-17.097656 0-30.398437-14.6875-30.398437-33.5v-245.5h250v245.5c0 18.8125-13.300782 33.5-30.398438 33.5zm-158.601562-367.5c-.066407-5.207031 1.980468-10.21875 5.675781-13.894531 3.691406-3.675781 8.714843-5.695313 13.925781-5.605469h88.796875c5.210937-.089844 10.234375 1.929688 13.925781 5.605469 3.695313 3.671875 5.742188 8.6875 5.675782 13.894531v12.5h-128zm-71.199219 32.5h270.398437c9.941406 0 18 8.058594 18 18s-8.058594 18-18 18h-270.398437c-9.941407 0-18-8.058594-18-18s8.058593-18 18-18zm0 0"/><path d="m173.398438 154.703125c-5.523438 0-10 4.476563-10 10v189c0 5.519531 4.476562 10 10 10 5.523437 0 10-4.480469 10-10v-189c0-5.523437-4.476563-10-10-10zm0 0"/></symbol><symbol id="trash" viewBox="0 0 512 512"><title>trash</title><path d="M490.667,85.333H448h-68.693l-7.019-28.075C363.883,23.552,333.717,0,298.965,0h-85.931 c-34.752,0-64.917,23.552-73.323,57.259l-7.019,28.075H64H21.333C9.536,85.333,0,94.891,0,106.667S9.536,128,21.333,128h22.485 l17.963,323.541C63.68,485.44,91.776,512,125.717,512h260.565c33.941,0,62.037-26.56,63.936-60.459L468.181,128h22.485 c11.797,0,21.333-9.557,21.333-21.333S502.464,85.333,490.667,85.333z M181.077,67.605c3.691-14.677,16.811-24.939,31.957-24.939 h85.931c15.147,0,28.267,10.261,31.957,24.939l4.416,17.728H176.661L181.077,67.605z M192,405.333 c0,11.776-9.536,21.333-21.333,21.333c-11.797,0-21.333-9.557-21.333-21.333V192c0-11.776,9.536-21.333,21.333-21.333 c11.797,0,21.333,9.557,21.333,21.333V405.333z M277.333,405.333c0,11.776-9.536,21.333-21.333,21.333 s-21.333-9.557-21.333-21.333V192c0-11.776,9.536-21.333,21.333-21.333s21.333,9.557,21.333,21.333V405.333z M362.667,405.333 c0,11.776-9.536,21.333-21.333,21.333c-11.797,0-21.333-9.557-21.333-21.333V192c0-11.776,9.536-21.333,21.333-21.333 c11.797,0,21.333,9.557,21.333,21.333V405.333z"/></symbol><symbol id="supermarket" viewBox="0 -31 512.00026 512"><title>supermarket</title><path d="m164.960938 300.003906h.023437c.019531 0 .039063-.003906.058594-.003906h271.957031c6.695312 0 12.582031-4.441406 14.421875-10.878906l60-210c1.292969-4.527344.386719-9.394532-2.445313-13.152344-2.835937-3.757812-7.269531-5.96875-11.976562-5.96875h-366.632812l-10.722657-48.253906c-1.527343-6.863282-7.613281-11.746094-14.644531-11.746094h-90c-8.285156 0-15 6.714844-15 15s6.714844 15 15 15h77.96875c1.898438 8.550781 51.3125 230.917969 54.15625 243.710938-15.941406 6.929687-27.125 22.824218-27.125 41.289062 0 24.8125 20.1875 45 45 45h272c8.285156 0 15-6.714844 15-15s-6.714844-15-15-15h-272c-8.269531 0-15-6.730469-15-15 0-8.257812 6.707031-14.976562 14.960938-14.996094zm312.152343-210.003906-51.429687 180h-248.652344l-40-180zm0 0"/><path d="m150 405c0 24.8125 20.1875 45 45 45s45-20.1875 45-45-20.1875-45-45-45-45 20.1875-45 45zm45-15c8.269531 0 15 6.730469 15 15s-6.730469 15-15 15-15-6.730469-15-15 6.730469-15 15-15zm0 0"/><path d="m362 405c0 24.8125 20.1875 45 45 45s45-20.1875 45-45-20.1875-45-45-45-45 20.1875-45 45zm45-15c8.269531 0 15 6.730469 15 15s-6.730469 15-15 15-15-6.730469-15-15 6.730469-15 15-15zm0 0"/></symbol><symbol id="facebook" viewBox="-110 1 511 511.99996"><title>facebook</title><path d="m180 512h-81.992188c-13.695312 0-24.835937-11.140625-24.835937-24.835938v-184.9375h-47.835937c-13.695313 0-24.835938-11.144531-24.835938-24.835937v-79.246094c0-13.695312 11.140625-24.835937 24.835938-24.835937h47.835937v-39.683594c0-39.347656 12.355469-72.824219 35.726563-96.804688 23.476562-24.089843 56.285156-36.820312 94.878906-36.820312l62.53125.101562c13.671875.023438 24.792968 11.164063 24.792968 24.835938v73.578125c0 13.695313-11.136718 24.835937-24.828124 24.835937l-42.101563.015626c-12.839844 0-16.109375 2.574218-16.808594 3.363281-1.152343 1.308593-2.523437 5.007812-2.523437 15.222656v31.351563h58.269531c4.386719 0 8.636719 1.082031 12.289063 3.121093 7.878906 4.402344 12.777343 12.726563 12.777343 21.722657l-.03125 79.246093c0 13.6875-11.140625 24.828125-24.835937 24.828125h-58.46875v184.941406c0 13.695313-11.144532 24.835938-24.839844 24.835938zm-76.8125-30.015625h71.632812v-193.195313c0-9.144531 7.441407-16.582031 16.582032-16.582031h66.726562l.027344-68.882812h-66.757812c-9.140626 0-16.578126-7.4375-16.578126-16.582031v-44.789063c0-11.726563 1.191407-25.0625 10.042969-35.085937 10.695313-12.117188 27.550781-13.515626 39.300781-13.515626l36.921876-.015624v-63.226563l-57.332032-.09375c-62.023437 0-100.566406 39.703125-100.566406 103.609375v53.117188c0 9.140624-7.4375 16.582031-16.578125 16.582031h-56.09375v68.882812h56.09375c9.140625 0 16.578125 7.4375 16.578125 16.582031zm163.0625-451.867187h.003906zm0 0"/></symbol><symbol id="pin" viewBox="0 0 512 512"><title>pin</title><g> <g> <path d="M256,0C156.748,0,76,80.748,76,180c0,33.534,9.289,66.26,26.869,94.652l142.885,230.257 c2.737,4.411,7.559,7.091,12.745,7.091c0.04,0,0.079,0,0.119,0c5.231-0.041,10.063-2.804,12.75-7.292L410.611,272.22 C427.221,244.428,436,212.539,436,180C436,80.748,355.252,0,256,0z M384.866,256.818L258.272,468.186l-129.905-209.34 C113.734,235.214,105.8,207.95,105.8,180c0-82.71,67.49-150.2,150.2-150.2S406.1,97.29,406.1,180 C406.1,207.121,398.689,233.688,384.866,256.818z"/> </g> </g><g> <g> <path d="M256,90c-49.626,0-90,40.374-90,90c0,49.309,39.717,90,90,90c50.903,0,90-41.233,90-90C346,130.374,305.626,90,256,90z M256,240.2c-33.257,0-60.2-27.033-60.2-60.2c0-33.084,27.116-60.2,60.2-60.2s60.1,27.116,60.1,60.2 C316.1,212.683,289.784,240.2,256,240.2z"/> </g> </g></symbol></svg>