<svg xmlns="http://www.w3.org/2000/svg" style="display: none;"><symbol id="facebook" viewBox="0 0 408.788 408.788"><title>facebook</title><path style="fill:#475993;" d="M353.701,0H55.087C24.665,0,0.002,24.662,0.002,55.085v298.616c0,30.423,24.662,55.085,55.085,55.085 h147.275l0.251-146.078h-37.951c-4.932,0-8.935-3.988-8.954-8.92l-0.182-47.087c-0.019-4.959,3.996-8.989,8.955-8.989h37.882 v-45.498c0-52.8,32.247-81.55,79.348-81.55h38.65c4.945,0,8.955,4.009,8.955,8.955v39.704c0,4.944-4.007,8.952-8.95,8.955 l-23.719,0.011c-25.615,0-30.575,12.172-30.575,30.035v39.389h56.285c5.363,0,9.524,4.683,8.892,10.009l-5.581,47.087 c-0.534,4.506-4.355,7.901-8.892,7.901h-50.453l-0.251,146.078h87.631c30.422,0,55.084-24.662,55.084-55.084V55.085 C408.786,24.662,384.124,0,353.701,0z"/></symbol><symbol id="user" viewBox="0 0 512 512"><title>user</title><path d="M437.02,330.98c-27.883-27.882-61.071-48.523-97.281-61.018C378.521,243.251,404,198.548,404,148 C404,66.393,337.607,0,256,0S108,66.393,108,148c0,50.548,25.479,95.251,64.262,121.962 c-36.21,12.495-69.398,33.136-97.281,61.018C26.629,379.333,0,443.62,0,512h40c0-119.103,96.897-216,216-216s216,96.897,216,216 h40C512,443.62,485.371,379.333,437.02,330.98z M256,256c-59.551,0-108-48.448-108-108S196.449,40,256,40 c59.551,0,108,48.448,108,108S315.551,256,256,256z"/></symbol><symbol id="book" viewBox="0 0 512.004 512.004"><title>book</title><path d="M291.057,242.811c1.51,2.953,4.514,4.659,7.62,4.659c1.297,0,2.628-0.299,3.866-0.93 c0.503-0.256,50.731-25.771,75.503-33.596c4.489-1.425,6.98-6.221,5.555-10.709c-1.417-4.489-6.178-6.989-10.709-5.572 c-26.095,8.252-75.981,33.596-78.097,34.671C290.596,233.467,288.924,238.605,291.057,242.811z"/><path d="M298.677,145.071c1.297,0,2.628-0.299,3.866-0.93c0.503-0.256,50.731-25.771,75.503-33.596 c4.489-1.425,6.98-6.221,5.555-10.709c-1.417-4.489-6.178-6.989-10.709-5.572c-26.095,8.252-75.981,33.596-78.097,34.671 c-4.198,2.133-5.871,7.27-3.738,11.477C292.567,143.364,295.571,145.071,298.677,145.071z"/><path d="M503.469,128.004c-4.719,0-8.533,3.823-8.533,8.533v332.8c0,14.114-11.486,25.6-25.6,25.6h-204.8v-19.635 c12.442-4.352,44.851-14.498,76.8-14.498c74.334,0,124.809,16.461,125.312,16.631c2.568,0.853,5.436,0.427,7.68-1.178 c2.227-1.604,3.541-4.181,3.541-6.921V93.871c0-4.002-2.773-7.467-6.682-8.329c0,0-6.69-1.493-18.125-3.593 c-4.617-0.853-9.079,2.219-9.933,6.844c-0.853,4.642,2.21,9.088,6.844,9.941c4.361,0.802,8.013,1.51,10.829,2.074v357.188 c-19.337-5.069-62.276-14.259-119.467-14.259c-37.18,0-73.702,12.211-85.001,16.35c-10.044-4.437-40.405-16.35-77.133-16.35 c-58.778,0-107.196,9.694-128,14.618V100.475c17.041-4.19,67.371-15.138,128-15.138c31.113,0,57.796,9.685,68.267,14.063v335.804 c0,3.072,1.655,5.914,4.326,7.424c2.671,1.519,5.965,1.476,8.602-0.111c0.845-0.503,85.393-51.004,160.435-76.015 c3.49-1.169,5.837-4.42,5.837-8.098V8.537c0-2.799-1.374-5.419-3.678-7.014c-2.287-1.596-5.222-1.963-7.859-0.981 C346.856,26.15,277.771,69.141,277.079,69.568c-3.994,2.5-5.214,7.765-2.714,11.759c2.492,3.994,7.757,5.214,11.759,2.714 c0.631-0.401,60.732-37.794,123.477-63.027v331.281c-58.249,20.241-119.066,53.291-145.067,68.087V93.871 c0-3.234-1.826-6.187-4.719-7.637c-1.468-0.725-36.437-17.963-80.614-17.963c-77.107,0-136.388,16.683-138.88,17.399 c-3.661,1.041-6.187,4.395-6.187,8.201v375.467c0,2.671,1.263,5.197,3.388,6.81c1.502,1.135,3.311,1.724,5.146,1.724 c0.785,0,1.57-0.111,2.338-0.333c0.589-0.162,59.597-16.734,134.195-16.734c31.198,0,57.856,9.711,68.267,14.071v20.062h-204.8 c-14.114,0-25.6-11.486-25.6-25.6v-332.8c0-4.71-3.823-8.533-8.533-8.533s-8.533,3.823-8.533,8.533v332.8 c0,23.526,19.14,42.667,42.667,42.667h426.667c23.526,0,42.667-19.14,42.667-42.667v-332.8 C512.002,131.827,508.188,128.004,503.469,128.004z"/><path d="M291.057,191.611c1.51,2.953,4.514,4.659,7.62,4.659c1.297,0,2.628-0.299,3.866-0.93 c0.503-0.256,50.731-25.771,75.503-33.596c4.489-1.425,6.98-6.221,5.555-10.709c-1.417-4.489-6.178-6.989-10.709-5.572 c-26.095,8.252-75.981,33.596-78.097,34.671C290.596,182.267,288.924,187.405,291.057,191.611z"/><path d="M291.057,294.011c1.51,2.953,4.514,4.659,7.62,4.659c1.297,0,2.628-0.299,3.866-0.93 c0.503-0.256,50.731-25.771,75.503-33.596c4.489-1.425,6.98-6.221,5.555-10.709c-1.417-4.489-6.178-6.989-10.709-5.572 c-26.095,8.252-75.981,33.596-78.097,34.671C290.596,284.667,288.924,289.805,291.057,294.011z"/><path d="M206.748,158.366c-52.693-12.365-112.572,3.388-115.089,4.062c-4.548,1.22-7.253,5.896-6.033,10.453 c1.024,3.814,4.471,6.323,8.235,6.323c0.734,0,1.476-0.094,2.219-0.29c0.572-0.162,58.223-15.326,106.778-3.934 c4.565,1.067,9.182-1.775,10.257-6.366C214.189,164.032,211.339,159.441,206.748,158.366z"/><path d="M206.748,209.566c-52.693-12.356-112.572,3.388-115.089,4.062c-4.548,1.22-7.253,5.897-6.033,10.453 c1.024,3.814,4.471,6.323,8.235,6.323c0.734,0,1.476-0.094,2.219-0.29c0.572-0.162,58.223-15.326,106.778-3.934 c4.565,1.067,9.182-1.775,10.257-6.366C214.189,215.232,211.339,210.641,206.748,209.566z"/><path d="M291.057,345.211c1.51,2.953,4.514,4.659,7.62,4.659c1.297,0,2.628-0.299,3.866-0.93 c0.503-0.256,50.731-25.771,75.503-33.596c4.489-1.425,6.98-6.221,5.555-10.709c-1.417-4.488-6.178-6.989-10.709-5.572 c-26.095,8.252-75.981,33.596-78.097,34.671C290.596,335.867,288.924,341.005,291.057,345.211z"/><path d="M206.748,260.766c-52.693-12.356-112.572,3.379-115.089,4.062c-4.548,1.22-7.253,5.897-6.033,10.453 c1.024,3.814,4.471,6.332,8.235,6.332c0.734,0,1.476-0.102,2.219-0.299c0.572-0.162,58.223-15.326,106.778-3.934 c4.565,1.067,9.182-1.775,10.257-6.366C214.189,266.432,211.339,261.841,206.748,260.766z"/><path d="M206.748,363.166c-52.693-12.365-112.572,3.388-115.089,4.062c-4.548,1.22-7.253,5.897-6.033,10.453 c1.024,3.814,4.471,6.332,8.235,6.332c0.734,0,1.476-0.102,2.219-0.299c0.572-0.162,58.223-15.326,106.778-3.934 c4.565,1.058,9.182-1.775,10.257-6.366C214.189,368.832,211.339,364.241,206.748,363.166z"/><path d="M206.748,311.966c-52.693-12.365-112.572,3.379-115.089,4.062c-4.548,1.22-7.253,5.897-6.033,10.453 c1.024,3.814,4.471,6.332,8.235,6.332c0.734,0,1.476-0.102,2.219-0.299c0.572-0.162,58.223-15.326,106.778-3.934 c4.565,1.067,9.182-1.775,10.257-6.366C214.189,317.632,211.339,313.041,206.748,311.966z"/></symbol><symbol id="cake" viewBox="0 0 950 950"><title>cake</title><path d="M901.261,449.657c-16.71-43.479-35.013-91.496-64.4-128.276c-22.216-27.803-63.87-51.881-100.746-46.25 c-0.479,0.073-3.56,0.746-8.913,1.943c1.331,9.227,2.011,18.583,2.011,28.039c0,26.248-5.153,51.743-15.318,75.776 c-9.807,23.184-23.831,43.991-41.686,61.847c-17.854,17.854-38.663,31.88-61.846,41.685 c-24.033,10.165-49.528,15.319-75.776,15.319s-51.742-5.154-75.775-15.319c-23.184-9.806-43.991-23.831-61.847-41.685 c-17.854-17.855-31.88-38.663-41.685-61.847c-2.411-5.7-4.53-11.485-6.375-17.34c-152.941,35.083-294.746,67.669-303.027,69.597 c-7.299,1.699-16.184,2.713-22.735,6.199c-5.526,2.94-9.487,7.641-9.487,15.993v381.766c0,15.044,15.905,28.903,35.503,30.944 l141.915,14.758l638.322,66.438c58.699,6.117,106.354-25.531,106.354-70.708c0-28.52-18.981-55.522-47.74-73.177 c28.759-11.623,47.745-34.733,47.745-63.21c0-28.471-18.984-55.474-47.693-73.079C972.909,634.507,924.976,511.365,901.261,449.657 z M714.38,875.212L88.654,810.058v-62.544l625.726,65.105c58.701,6.123,106.347,25.059,106.347,42.329 C820.727,872.223,773.081,881.334,714.38,875.212z M714.38,750.551L88.654,685.396v-62.593l625.726,65.202 c58.701,6.123,106.347,25.054,106.347,42.329C820.727,747.606,773.081,756.674,714.38,750.551z M714.38,625.89L88.654,560.78 v-62.593l625.726,65.11c58.701,6.118,106.347,25.104,106.347,42.373C820.727,622.994,773.081,632.008,714.38,625.89z"/><path d="M399.96,305.114c0,15.768,2.721,30.899,7.701,44.961c18.506,52.241,68.341,89.666,126.924,89.666 c74.353,0,134.626-60.274,134.626-134.626c0-4.971-0.277-9.876-0.803-14.708c-7.328-67.432-64.441-119.918-133.823-119.918 c-7.086,0-14.042,0.551-20.832,1.606c-4.607-9.426-9.713-18.638-15.216-27.62c-5.547-9.054-11.493-17.874-17.715-26.451 c-7.626-10.512-15.666-20.659-23.911-30.412c-15.331-18.135-31.972-35.302-50.263-50.478C390.631,23.843,373.6,11.04,354.462,2.571 c-10.823-4.79-23.232-3.264-29.708,7.79c-5.471,9.34-3.039,24.917,7.79,29.709c8.982,3.975,17.517,8.928,25.643,14.435 c2.348,1.591,4.677,3.209,6.968,4.881c0.835,0.61,3.828,2.892,4.616,3.473c3.471,2.748,6.902,5.545,10.253,8.44 c8.839,7.638,17.339,15.672,25.455,24.075c8.545,8.847,16.76,18.018,24.546,27.541c2.212,2.706,4.407,5.427,6.557,8.184 c0.005,0.006,0.009,0.011,0.015,0.017c0.077,0.103,0.162,0.215,0.257,0.339c0.905,1.196,1.812,2.391,2.707,3.595 c0.032,0.045,0.064,0.09,0.098,0.134c3.533,4.762,6.996,9.577,10.328,14.483c2.328,3.427,4.607,6.888,6.839,10.38 c4.352,6.812,8.504,13.752,12.369,20.852c0.914,1.679,1.812,3.366,2.701,5.058C429.122,208.507,399.96,253.401,399.96,305.114z"/></symbol><symbol id="food-and-restaurant" viewBox="0 0 512 512"><title>food-and-restaurant</title><rect x="21.018" y="217.584" style="fill:#FDCA74;" width="469.763" height="225.352"/><g> <rect x="21.53" y="238.6" style="fill:#E6B25B;" width="469.247" height="30.382"/> <rect x="21.53" y="351.106" style="fill:#E6B25B;" width="469.247" height="30.382"/> </g><path style="fill:#A8503C;" d="M351.984,62.395c-19-5.38-39.307-3.631-57.161,4.804c0,0-264.251,123.514-281.986,131.015 c-7.706,3.26-13.064,10.984-12.829,19.93c0.301,11.472,10.046,20.453,21.523,20.453h437.251c8.949,0,16.197,7.255,16.197,16.204 v38.231c0,8.949-7.255,16.204-16.204,16.204H21.018C9.41,309.238,0,318.648,0,330.256l0,0c0,11.608,9.41,21.018,21.018,21.018 h437.757c8.949,0,16.204,7.255,16.204,16.204v38.231c0,8.949-7.255,16.204-16.204,16.204H21.018C9.41,421.913,0,431.323,0,442.931 l0,0c0,11.608,9.41,21.018,21.018,21.018h460.011c17.105,0,30.971-13.866,30.971-30.971V238.6 C512,122.674,406.495,77.829,351.984,62.395z"/><path style="fill:#993E29;" d="M351.984,62.395c-10.642-3.013-21.694-3.787-32.495-2.405c3.997,0.507,7.973,1.296,11.891,2.405 c54.511,15.434,160.016,60.279,160.016,176.204v194.378c0,17.105-13.866,30.971-30.971,30.971h20.604 c17.105,0,30.971-13.866,30.971-30.971V238.6C512,122.674,406.495,77.829,351.984,62.395z"/><path style="fill:#DE4B51;" d="M284.539,152.971c-0.477,0-0.961-0.044-1.446-0.136c-4.19-0.794-6.945-4.833-6.155-9.023 c0.061-0.329,3.206-17.721,0.207-36.489c-3.775-23.628-15.257-38.479-34.126-44.142c-4.088-1.226-6.407-5.534-5.18-9.621 s5.534-6.407,9.621-5.18c24.807,7.444,40.371,27.131,45.012,56.931c3.338,21.441-0.198,40.566-0.35,41.37 C291.419,150.387,288.178,152.971,284.539,152.971z"/><circle style="fill:#F9545B;" cx="284.526" cy="145.244" r="38.782"/></symbol><symbol id="birthday" viewBox="0 0 512 512"><title>birthday</title><g> <g> <path d="M503.581,447.667h-28.396V349.17c0-22.047-17.936-39.983-39.983-39.983h-12.327V206.495 c0-19.733-16.055-35.788-35.788-35.788h-99.762V88.151c0-4.649-3.769-8.419-8.418-8.419h-14.489V67.156 c11.134-3.569,19.218-14.017,19.218-26.321c0-12.899-16.416-31.709-21.447-37.166c-1.594-1.73-3.838-2.713-6.189-2.713 c-2.352,0-4.595,0.983-6.189,2.713c-5.031,5.457-21.447,24.267-21.447,37.166c0,12.303,8.084,22.751,19.218,26.321v12.577h-14.489 c-4.649,0-8.419,3.769-8.419,8.419v82.556h-99.762c-19.733,0-35.788,16.055-35.788,35.788v74.069c0,4.649,3.769,8.419,8.418,8.419 c4.649,0,8.419-3.769,8.419-8.419v-74.069c0-10.449,8.502-18.951,18.951-18.951h262.175c10.449,0,18.951,8.502,18.951,18.951 v102.692H97.544H76.797c-22.048,0-39.983,17.936-39.983,39.983v69.082c0,4.649,3.769,8.419,8.418,8.419 c4.649,0,8.419-3.769,8.419-8.419v-69.082c0-12.764,10.383-23.146,23.146-23.146h20.745h316.913h20.745 c12.764,0,23.146,10.383,23.146,23.146v98.497H45.232H8.419c-4.649,0-8.419,3.769-8.419,8.419 c0,30.303,24.654,54.957,54.957,54.957h402.086c30.303,0,54.957-24.654,54.957-54.957 C512,451.436,508.231,447.667,503.581,447.667z M245.201,40.834c0-2.897,4.664-10.666,10.799-18.466 c6.135,7.8,10.799,15.569,10.799,18.466c0,5.955-4.845,10.799-10.799,10.799C250.045,51.633,245.201,46.789,245.201,40.834z M270.488,170.707h-28.977V96.569h28.977V170.707z M457.043,494.206H54.957c-18.128,0-33.341-12.719-37.183-29.702h27.459h421.534 h27.459C490.384,481.487,475.171,494.206,457.043,494.206z"/> </g> </g><g> <g> <path d="M377.719,212.133c-12.217-0.199-20.606,8.066-27.354,14.721c-6.11,6.024-10.159,9.661-14.526,9.543 c-4.103-0.12-7.237-3.674-12.009-9.461c-5.593-6.783-12.556-15.224-24.498-15.574c-11.793-0.351-19.563,7.357-26.415,14.151 c-6.339,6.286-10.567,10.102-15.818,10.108c-0.003,0-0.006,0-0.009,0c-5.18,0-9.276-3.824-15.401-10.121 c-6.456-6.636-14.481-14.884-26.671-14.884c-0.076,0-0.155,0-0.231,0.001c-12.725,0.109-20.916,9.077-27.498,16.284 c-5.897,6.458-9.809,10.382-14.351,10.382c-0.008,0-0.015,0-0.022,0c-4.549-0.012-8.369-3.943-14.121-10.413 c-6.26-7.043-14.043-15.802-26.151-15.802c-0.046,0-0.093,0-0.14,0c-4.649,0.026-8.397,3.816-8.371,8.466 c0.026,4.634,3.789,8.371,8.417,8.371c0.029,0.001,0.058,0.001,0.088,0.001c4.245,0,7.964,3.839,13.574,10.15 c6.348,7.142,14.246,16.03,26.659,16.066c0.024,0,0.047,0,0.072,0c12.292,0,20.325-8.794,26.781-15.864 c6.112-6.692,10.186-10.759,15.209-10.803c4.884-0.019,8.76,3.693,14.69,9.788c6.597,6.78,14.804,15.216,27.468,15.216 c0.008,0,0.018,0,0.026,0c12.555-0.011,20.93-8.316,27.659-14.989c5.804-5.755,9.664-9.279,13.849-9.279 c0.073,0,0.146,0.001,0.218,0.002c4.098,0.12,7.23,3.672,12,9.457c5.596,6.784,12.558,15.227,24.505,15.578 c11.925,0.378,20.186-7.82,26.843-14.384c6.288-6.201,10.445-9.985,15.235-9.874c4.69,0.064,8.485-3.62,8.566-8.269 C386.069,216.049,382.369,212.215,377.719,212.133z"/> </g> </g><g> <g> <path d="M434.651,351.513c-12.574-0.391-20.936,7.93-28.32,15.253c-6.085,6.033-11.341,11.248-17.799,11.29 c-5.012-0.109-8.605-3.842-14.035-9.913c-6.203-6.931-13.922-15.558-26.936-15.787c-0.165-0.002-0.328-0.005-0.492-0.005 c-12.762,0-21.683,8.797-28.869,15.883c-5.894,5.812-10.978,10.814-16.474,10.67c-4.831-0.141-8.364-4.136-13.728-10.64 c-6.019-7.298-13.509-16.381-26.216-16.753c-12.563-0.391-20.937,7.93-28.32,15.253c-6.105,6.055-11.378,11.283-17.866,11.29 c-0.003,0-0.008,0-0.011,0c-5.979,0-10.571-4.276-17.42-11.313c-6.96-7.154-15.611-16.045-28.616-16.045 c-0.081,0-0.164,0-0.244,0.001c-13.577,0.116-22.41,9.788-29.509,17.56c-6.599,7.226-10.992,11.616-16.288,11.616 c-0.009,0-0.018,0-0.027,0c-5.308-0.015-9.6-4.416-16.04-11.66c-6.77-7.617-15.168-17.058-28.171-17.024 c-4.649,0.026-8.397,3.816-8.371,8.466c0.026,4.633,3.789,8.371,8.417,8.371c0.019,0.002,0.035,0.002,0.051,0.002 c5.022-0.072,9.186,4.278,15.491,11.372c6.84,7.696,15.353,17.275,28.577,17.312c0.027,0,0.052,0,0.08,0 c13.096-0.001,21.394-9.084,28.715-17.1c6.832-7.481,11.401-12.027,17.22-12.078c0.031,0,0.063,0,0.093,0 c5.501,0,9.934,4.144,16.555,10.95c7.113,7.312,15.965,16.409,29.486,16.409c0.009,0,0.018,0,0.027,0 c13.411-0.012,22.446-8.972,29.706-16.171c6.61-6.555,10.954-10.513,15.973-10.38c4.826,0.141,8.357,4.134,13.719,10.635 c6.02,7.299,13.512,16.385,26.223,16.757c12.696,0.394,21.24-8.066,28.79-15.511c6.06-5.976,11.276-11.172,17.241-11.033 c5.391,0.094,9.093,3.93,14.685,10.18c6.111,6.83,13.717,15.33,26.396,15.52c0.045,0,0.09,0.001,0.135,0.001 c13.411-0.012,22.446-8.972,29.706-16.171c6.611-6.555,10.97-10.497,15.973-10.38c4.654,0.143,8.525-3.521,8.661-8.168 C442.955,355.526,439.298,351.649,434.651,351.513z"/> </g> </g></symbol><symbol id="food" viewBox="0 0 511.988 511.988"><title>food</title><g> <g> <path d="M394.655,202.654H95.988c-17.643,0-32,14.357-32,32v21.333c0,76.117,42.048,145.152,109.717,180.16 c5.227,2.688,11.669,0.661,14.379-4.587c2.688-5.227,0.661-11.669-4.587-14.379c-60.544-31.317-98.176-93.077-98.176-161.195 v-21.333c0-5.888,4.779-10.667,10.667-10.667h298.667c5.888,0,10.667,4.779,10.667,10.667v21.333 c0,68.117-37.632,129.877-98.197,161.173c-5.248,2.709-7.275,9.152-4.587,14.379c1.899,3.669,5.632,5.781,9.493,5.781 c1.664,0,3.328-0.384,4.885-1.195c67.691-34.987,109.739-104,109.739-180.139v-21.333 C426.655,217.011,412.297,202.654,394.655,202.654z"/> </g> </g><g> <g> <path d="M489.865,422.558c-1.664-3.989-5.547-6.592-9.856-6.592H10.676c-4.309,0-8.192,2.603-9.856,6.592 c-1.664,3.989-0.747,8.576,2.304,11.627l23.915,23.936c14.123,14.101,32.853,21.867,52.8,21.867h330.965 c19.947,0,38.699-7.765,52.843-21.867l23.915-23.936C490.612,431.134,491.529,426.547,489.865,422.558z M448.543,443.038 c-10.069,10.069-23.488,15.616-37.717,15.616H79.839c-14.229,0-27.648-5.547-37.717-15.616l-5.717-5.717H454.26L448.543,443.038z"/> </g> </g><g> <g> <path d="M491.359,253.022c-28.736-18.475-74.645,1.579-79.787,3.904c-5.355,2.453-7.744,8.768-5.291,14.144 c2.453,5.376,8.747,7.744,14.144,5.291c10.283-4.672,43.264-15.744,59.392-5.355c7.275,4.672,10.837,13.739,10.837,27.648 c0,42.709-86.144,68.523-119.403,74.88l-7.552,1.493c-5.781,1.131-9.536,6.741-8.405,12.523c1.003,5.077,5.461,8.597,10.453,8.597 c0.683,0,1.365-0.064,2.069-0.213l7.488-1.472c5.589-1.067,136.683-26.773,136.683-95.808 C511.988,277.193,505.034,261.854,491.359,253.022z"/> </g> </g><g> <g> <path d="M328.372,113.31c17.344-21.675,17.344-55.616,0-77.291c-3.691-4.608-10.368-5.376-14.997-1.664 c-4.608,3.691-5.355,10.389-1.664,14.997c10.987,13.717,10.987,36.907-0.021,50.667c-17.365,21.675-17.365,55.616,0,77.291 c2.112,2.645,5.205,4.011,8.341,4.011c2.325,0,4.693-0.768,6.656-2.347c4.608-3.691,5.355-10.411,1.664-14.997 C317.343,150.259,317.343,127.07,328.372,113.31z"/> </g> </g><g> <g> <path d="M264.287,113.31c17.365-21.675,17.365-55.616,0-77.291c-3.669-4.608-10.389-5.355-14.997-1.664 c-4.608,3.691-5.355,10.411-1.664,14.997c11.008,13.717,11.008,36.907-0.021,50.667c-17.344,21.675-17.344,55.616,0,77.291 c2.112,2.645,5.205,4.011,8.341,4.011c2.325,0,4.672-0.768,6.656-2.347c4.608-3.691,5.355-10.389,1.664-14.997 C253.279,150.259,253.279,127.07,264.287,113.31z"/> </g> </g><g> <g> <path d="M200.372,113.331c17.344-21.675,17.344-55.616,0-77.291c-3.669-4.608-10.368-5.376-14.997-1.664 c-4.587,3.669-5.333,10.389-1.664,14.976c10.987,13.717,10.987,36.907-0.021,50.667c-17.365,21.675-17.365,55.616,0,77.291 c2.112,2.645,5.205,4.011,8.341,4.011c2.325,0,4.693-0.768,6.656-2.325c4.608-3.691,5.355-10.411,1.664-14.997 C189.343,150.259,189.343,127.091,200.372,113.331z"/> </g> </g></symbol><symbol id="news" viewBox="0 0 543.185 543.185"><title>news</title><path d="M534.644,1.79H143.907c-4.72,0-8.54,3.828-8.54,8.544v34.132H72.005c-2.458,0-4.807,1.064-6.427,2.919 c-1.62,1.861-2.353,4.32-2.036,6.763l3.319,24.521H8.541c-2.679,0-5.22,1.264-6.835,3.411c-1.613,2.146-2.117,4.925-1.362,7.519 l129.987,445.633c1.086,3.738,4.492,6.162,8.209,6.162c0.79,0,396.1,0,396.1,0c4.715,0,8.545-3.81,8.545-8.548V10.339 C543.185,5.618,539.354,1.79,534.644,1.79z M135.368,61.555v395.79L81.794,61.555H135.368L135.368,61.555z M69.17,95.752 l42.646,314.995L19.928,95.752H69.17z M526.101,524.306H152.447V18.881h373.662v505.425H526.101z M301.902,86.356H166.079V47.911 h135.818L301.902,86.356L301.902,86.356z M513.32,86.356H377.499V47.911h135.816L513.32,86.356L513.32,86.356z M310.669,67.136 c0-15.796,12.81-28.616,28.604-28.616c15.802,0,28.622,12.815,28.622,28.616c0,15.805-12.826,28.616-28.622,28.616 C323.474,95.752,310.669,82.937,310.669,67.136z M493.182,275.439H377.499V145.588h115.679L493.182,275.439L493.182,275.439z M322.188,164.672H179.965v-14.243h142.223V164.672z M179.965,205.096h142.223v14.244H179.965V205.096z M181.566,261.006h142.225 v14.242H181.566V261.006z M179.965,317.327h313.217v14.237H179.965V317.327z M179.965,373.558h313.217v14.237H179.965V373.558z M179.965,429.078h313.217v14.247H179.965V429.078z"/></symbol><symbol id="logout" viewBox="0 0 471.2 471.2"><title>logout</title><path d="M227.619,444.2h-122.9c-33.4,0-60.5-27.2-60.5-60.5V87.5c0-33.4,27.2-60.5,60.5-60.5h124.9c7.5,0,13.5-6,13.5-13.5 s-6-13.5-13.5-13.5h-124.9c-48.3,0-87.5,39.3-87.5,87.5v296.2c0,48.3,39.3,87.5,87.5,87.5h122.9c7.5,0,13.5-6,13.5-13.5 S235.019,444.2,227.619,444.2z"/><path d="M450.019,226.1l-85.8-85.8c-5.3-5.3-13.8-5.3-19.1,0c-5.3,5.3-5.3,13.8,0,19.1l62.8,62.8h-273.9c-7.5,0-13.5,6-13.5,13.5 s6,13.5,13.5,13.5h273.9l-62.8,62.8c-5.3,5.3-5.3,13.8,0,19.1c2.6,2.6,6.1,4,9.5,4s6.9-1.3,9.5-4l85.8-85.8 C455.319,239.9,455.319,231.3,450.019,226.1z"/></symbol><symbol id="comment" viewBox="-21 -47 682.66669 682"><title>comment</title><path d="m552.011719-1.332031h-464.023438c-48.515625 0-87.988281 39.464843-87.988281 87.988281v283.972656c0 48.414063 39.300781 87.816406 87.675781 87.988282v128.863281l185.191407-128.863281h279.144531c48.515625 0 87.988281-39.472657 87.988281-87.988282v-283.972656c0-48.523438-39.472656-87.988281-87.988281-87.988281zm50.488281 371.960937c0 27.835938-22.648438 50.488282-50.488281 50.488282h-290.910157l-135.925781 94.585937v-94.585937h-37.1875c-27.839843 0-50.488281-22.652344-50.488281-50.488282v-283.972656c0-27.84375 22.648438-50.488281 50.488281-50.488281h464.023438c27.839843 0 50.488281 22.644531 50.488281 50.488281zm0 0"/><path d="m171.292969 131.171875h297.414062v37.5h-297.414062zm0 0"/><path d="m171.292969 211.171875h297.414062v37.5h-297.414062zm0 0"/><path d="m171.292969 291.171875h297.414062v37.5h-297.414062zm0 0"/></symbol><symbol id="menu" viewBox="0 0 56 56"><title>menu</title><path d="M28,0C12.561,0,0,12.561,0,28s12.561,28,28,28s28-12.561,28-28S43.439,0,28,0z M40,41H16c-1.104,0-2-0.896-2-2s0.896-2,2-2 h24c1.104,0,2,0.896,2,2S41.104,41,40,41z M40,30H16c-1.104,0-2-0.896-2-2s0.896-2,2-2h24c1.104,0,2,0.896,2,2S41.104,30,40,30z M40,19H16c-1.104,0-2-0.896-2-2s0.896-2,2-2h24c1.104,0,2,0.896,2,2S41.104,19,40,19z"/></symbol><symbol id="problem" viewBox="0 0 24 24"><title>problem</title><path style="fill:#030104;" d="M12,0C5.373,0,0,5.373,0,12s5.373,12,12,12s12-5.373,12-12S18.627,0,12,0z M12,19.66 c-0.938,0-1.58-0.723-1.58-1.66c0-0.964,0.669-1.66,1.58-1.66c0.963,0,1.58,0.696,1.58,1.66C13.58,18.938,12.963,19.66,12,19.66z M12.622,13.321c-0.239,0.815-0.992,0.829-1.243,0c-0.289-0.956-1.316-4.585-1.316-6.942c0-3.11,3.891-3.125,3.891,0 C13.953,8.75,12.871,12.473,12.622,13.321z"/></symbol><symbol id="phone" viewBox="0 0 480.56 480.56"><title>phone</title><path d="M365.354,317.9c-15.7-15.5-35.3-15.5-50.9,0c-11.9,11.8-23.8,23.6-35.5,35.6c-3.2,3.3-5.9,4-9.8,1.8 c-7.7-4.2-15.9-7.6-23.3-12.2c-34.5-21.7-63.4-49.6-89-81c-12.7-15.6-24-32.3-31.9-51.1c-1.6-3.8-1.3-6.3,1.8-9.4 c11.9-11.5,23.5-23.3,35.2-35.1c16.3-16.4,16.3-35.6-0.1-52.1c-9.3-9.4-18.6-18.6-27.9-28c-9.6-9.6-19.1-19.3-28.8-28.8 c-15.7-15.3-35.3-15.3-50.9,0.1c-12,11.8-23.5,23.9-35.7,35.5c-11.3,10.7-17,23.8-18.2,39.1c-1.9,24.9,4.2,48.4,12.8,71.3 c17.6,47.4,44.4,89.5,76.9,128.1c43.9,52.2,96.3,93.5,157.6,123.3c27.6,13.4,56.2,23.7,87.3,25.4c21.4,1.2,40-4.2,54.9-20.9 c10.2-11.4,21.7-21.8,32.5-32.7c16-16.2,16.1-35.8,0.2-51.8C403.554,355.9,384.454,336.9,365.354,317.9z"/><path d="M346.254,238.2l36.9-6.3c-5.8-33.9-21.8-64.6-46.1-89c-25.7-25.7-58.2-41.9-94-46.9l-5.2,37.1 c27.7,3.9,52.9,16.4,72.8,36.3C329.454,188.2,341.754,212,346.254,238.2z"/><path d="M403.954,77.8c-42.6-42.6-96.5-69.5-156-77.8l-5.2,37.1c51.4,7.2,98,30.5,134.8,67.2c34.9,34.9,57.8,79,66.1,127.5 l36.9-6.3C470.854,169.3,444.354,118.3,403.954,77.8z"/></symbol><symbol id="birthday-1" viewBox="0 0 469.333 469.333"><title>birthday-1</title><path d="M234.56,128c23.573,0,42.667-19.093,42.667-42.667c0-8-2.24-15.573-6.08-21.973L234.56,0l-36.587,63.36 c-3.84,6.4-6.08,13.973-6.08,21.973C191.893,108.907,210.987,128,234.56,128z"/><path d="M362.56,192L362.56,192H255.893v-42.667h-42.667V192H106.56c-35.307,0-64,28.693-64,64v32.853 c0,23.04,18.773,41.813,41.813,41.813c11.2,0,21.653-4.373,29.547-12.267l45.653-45.547l45.547,45.44 c15.787,15.787,43.307,15.787,59.093,0l45.653-45.44l45.547,45.44c7.893,7.893,18.347,12.267,29.547,12.267 c23.04,0,41.813-18.773,41.813-41.813V256C426.56,220.693,397.867,192,362.56,192z"/><path d="M332.587,341.013L332.587,341.013l-22.933-22.933l-23.04,22.933c-27.84,27.84-76.48,27.84-104.32,0L159.36,318.08 l-23.04,22.933c-13.76,13.973-32.213,21.653-51.947,21.653c-15.467,0-29.867-4.907-41.813-13.12V448 c0,11.733,9.6,21.333,21.333,21.333h341.333c11.733,0,21.333-9.6,21.333-21.333v-98.453c-11.947,8.213-26.24,13.12-41.813,13.12 C365.013,362.667,346.56,354.987,332.587,341.013z"/></symbol></svg>