<svg xmlns="http://www.w3.org/2000/svg" style="display: none;"><symbol id="arrow" viewBox="0 0 512 512"><title>arrow</title><linearGradient id="SVGID_1_" gradientUnits="userSpaceOnUse" x1="0" y1="258" x2="512" y2="258" gradientTransform="matrix(1 0 0 -1 0 514)"> <stop offset="0" style="stop-color:#00F2FE"/> <stop offset="0.021" style="stop-color:#03EFFE"/> <stop offset="0.293" style="stop-color:#24D2FE"/> <stop offset="0.554" style="stop-color:#3CBDFE"/> <stop offset="0.796" style="stop-color:#4AB0FE"/> <stop offset="1" style="stop-color:#4FACFE"/> </linearGradient><path style="fill:url(#SVGID_1_);" d="M432,512H80c-44.112,0-80-35.888-80-80v-40c0-11.046,8.954-20,20-20s20,8.954,20,20v40 c0,22.056,17.944,40,40,40h352c22.056,0,40-17.944,40-40V80c0-22.056-17.944-40-40-40H80c-22.056,0-40,17.944-40,40v40 c0,11.046-8.954,20-20,20s-20-8.954-20-20V80C0,35.888,35.888,0,80,0h352c44.112,0,80,35.888,80,80v352 C512,476.112,476.112,512,432,512z M261.229,374.054l74.746-75.677c23.347-23.398,23.329-61.425-0.056-84.81l-74.784-74.716 c-7.814-7.807-20.477-7.801-28.284,0.013s-7.801,20.478,0.013,28.284l74.778,74.709c7.798,7.798,7.798,20.486,0,28.284 c-0.029,0.029-0.058,0.059-0.087,0.088l-74.784,75.716c-7.762,7.858-7.684,20.521,0.175,28.284c3.897,3.85,8.976,5.771,14.053,5.771 C252.159,380,257.317,378.015,261.229,374.054z M253,256c0-11.046-8.954-20-20-20H20c-11.046,0-20,8.954-20,20 c0,11.046,8.954,20,20,20h213C244.046,276,253,267.046,253,256z"/></symbol><symbol id="login" viewBox="0 0 512 512"><title>login</title><path d="m481.578125 9.238281c-3.988281-5.78125-10.558594-9.238281-17.578125-9.238281h-229.332031c-35.285157 0-64 28.714844-64 64v16.617188c.832031.75 1.789062 1.324218 2.578125 2.136718l85.335937 85.332032c12.09375 12.074218 18.75 28.160156 18.75 45.246093 0 17.089844-6.65625 33.175781-18.75 45.25l-85.335937 85.332031c-.789063.789063-1.746094 1.367188-2.578125 2.132813v37.953125c0 35.285156 28.714843 64 64 64h74.664062c8.855469 0 16.789063-5.460938 19.925781-13.738281l154.667969-405.332031c2.515625-6.550782 1.621094-13.910157-2.347656-19.691407zm0 0" fill="#2196f3"/><path d="m119.828125 318.378906c-7.957031-3.308594-13.160156-11.09375-13.160156-19.710937v-64h-85.335938c-11.773437 0-21.332031-9.558594-21.332031-21.335938 0-11.773437 9.558594-21.332031 21.332031-21.332031h85.335938v-64c0-8.617188 5.203125-16.40625 13.160156-19.710938 7.980469-3.308593 17.152344-1.472656 23.253906 4.628907l85.332031 85.332031c8.34375 8.34375 8.34375 21.824219 0 30.164062l-85.332031 85.335938c-6.101562 6.101562-15.273437 7.933594-23.253906 4.628906zm0 0" fill="#607d8b"/><path d="m455.742188 2.113281-128.167969 42.730469c-17.300781 5.972656-28.90625 22.25-28.90625 40.488281v384c0 23.53125 19.132812 42.667969 42.664062 42.667969 4.566407 0 8.898438-.660156 13.589844-2.113281l128.171875-42.730469c17.300781-5.972656 28.90625-22.25 28.90625-40.488281v-384c0-28.097657-27.328125-49.453125-56.257812-40.554688zm0 0" fill="#64b5f6"/></symbol><symbol id="login-1" viewBox="0 0 512 512"><title>login-1</title><rect x="256" y="9.143" style="fill:#A4C2F7;" width="210.286" height="493.714"/><rect x="128" y="9.143" style="fill:#FFFFFF;" width="210.286" height="493.714"/><linearGradient id="SVGID_1_" gradientUnits="userSpaceOnUse" x1="-49.0126" y1="652.612" x2="-47.6416" y2="651.825" gradientTransform="matrix(283.4286 0 0 -493.7143 13994.4238 322265.5938)"> <stop offset="0" style="stop-color:#D4E1F4"/> <stop offset="0.1717" style="stop-color:#D4E1F4"/> <stop offset="0.2" style="stop-color:#D4E1F4"/> <stop offset="0.2001" style="stop-color:#DAE4F4"/> <stop offset="0.2007" style="stop-color:#EBEBF4"/> <stop offset="0.2014" style="stop-color:#F6F1F4"/> <stop offset="0.2023" style="stop-color:#FDF4F4"/> <stop offset="0.205" style="stop-color:#FFF5F4"/> <stop offset="0.2522" style="stop-color:#FFF5F4"/> <stop offset="0.26" style="stop-color:#FFF5F4"/> <stop offset="0.26" style="stop-color:#D4E1F4"/> <stop offset="0.3974" style="stop-color:#D4E1F4"/> <stop offset="0.42" style="stop-color:#D4E1F4"/> <stop offset="0.4201" style="stop-color:#DAE4F4"/> <stop offset="0.4207" style="stop-color:#EBEBF4"/> <stop offset="0.4214" style="stop-color:#F6F1F4"/> <stop offset="0.4223" style="stop-color:#FDF4F4"/> <stop offset="0.425" style="stop-color:#FFF5F4"/> <stop offset="0.4894" style="stop-color:#FFF5F4"/> <stop offset="0.5" style="stop-color:#FFF5F4"/> <stop offset="0.5" style="stop-color:#F9F2F4"/> <stop offset="0.5001" style="stop-color:#E8EBF4"/> <stop offset="0.5003" style="stop-color:#DDE5F4"/> <stop offset="0.5005" style="stop-color:#D6E2F4"/> <stop offset="0.501" style="stop-color:#D4E1F4"/> <stop offset="0.7062" style="stop-color:#D4E1F4"/> <stop offset="0.74" style="stop-color:#D4E1F4"/> <stop offset="0.741" style="stop-color:#FFF5F4"/> <stop offset="0.8346" style="stop-color:#FFF5F4"/> <stop offset="0.85" style="stop-color:#FFF5F4"/> <stop offset="0.851" style="stop-color:#D4E1F4"/> </linearGradient><rect x="155.429" y="9.143" style="fill:url(#SVGID_1_);" width="283.429" height="493.714"/><g> <path style="fill:#428DFF;" d="M347.429,265.143c-2.425,0.003-4.752-0.961-6.464-2.679L231.25,152.75 c-3.515-3.579-3.489-9.322,0.058-12.87c3.547-3.547,9.29-3.573,12.87-0.058l109.714,109.714c2.614,2.615,3.396,6.547,1.981,9.963 C354.459,262.915,351.126,265.142,347.429,265.143z"/> <path style="fill:#428DFF;" d="M237.714,374.857c-3.697-0.001-7.03-2.228-8.445-5.644c-1.415-3.416-0.633-7.348,1.981-9.963 l109.714-109.714c2.302-2.344,5.686-3.273,8.862-2.432c3.176,0.841,5.657,3.322,6.498,6.498c0.841,3.176-0.088,6.56-2.432,8.862 L244.178,372.178C242.466,373.896,240.14,374.86,237.714,374.857L237.714,374.857z"/> <path style="fill:#428DFF;" d="M347.429,265.143H45.714c-5.049,0-9.143-4.093-9.143-9.143c0-5.049,4.093-9.143,9.143-9.143 h301.714c5.049,0,9.143,4.093,9.143,9.143C356.571,261.049,352.478,265.143,347.429,265.143z"/> <path style="fill:#428DFF;" d="M466.286,512H128c-2.425,0.001-4.752-0.961-6.466-2.676c-1.715-1.715-2.678-4.041-2.676-6.467v-192 c0-5.049,4.093-9.143,9.143-9.143c5.049,0,9.143,4.093,9.143,9.143v182.857h320V18.286h-320v182.857 c0,5.049-4.093,9.143-9.143,9.143c-5.049,0-9.143-4.093-9.143-9.143v-192c-0.001-2.425,0.961-4.752,2.676-6.467 C123.248,0.961,125.575-0.001,128,0h338.286c2.425-0.001,4.752,0.961,6.467,2.676c1.715,1.715,2.678,4.041,2.676,6.467v493.714 c0.001,2.425-0.961,4.752-2.676,6.467C471.037,511.039,468.711,512.001,466.286,512z"/> </g></symbol><symbol id="login-2" viewBox="0 0 512 512"><title>login-2</title><linearGradient id="a" gradientUnits="userSpaceOnUse" x1="0" x2="512" y1="256" y2="256"><stop offset="0" stop-color="#00f38d"/><stop offset="1" stop-color="#009eff"/></linearGradient><path d="m512 256c0 141.386719-114.613281 256-256 256s-256-114.613281-256-256 114.613281-256 256-256 256 114.613281 256 256zm0 0" fill="url(#a)"/><g fill="#fff"><path d="m353.160156 85.480469h-158.8125c-22.808594 0-41.359375 18.554687-41.359375 41.359375v54.539062h30v-54.539062c0-6.265625 5.09375-11.359375 11.359375-11.359375h158.8125c6.265625 0 11.359375 5.097656 11.359375 11.359375v258.320312c0 6.265625-5.097656 11.359375-11.359375 11.359375h-158.8125c-6.265625 0-11.359375-5.097656-11.359375-11.359375v-54.539062h-30v54.539062c0 22.804688 18.550781 41.359375 41.359375 41.359375h158.8125c22.804688 0 41.359375-18.554687 41.359375-41.359375v-258.320312c0-22.804688-18.554687-41.359375-41.359375-41.359375zm0 0"/><path d="m192.902344 299.492188 21.214844 21.214843 64.703124-64.707031-64.703124-64.707031-21.214844 21.214843 28.492187 28.492188h-167.914062v30h167.914062zm0 0"/></g></symbol></svg>